<svg version="1.1" xmlns="http://www.w3.org/2000/svg" style="display: block;" viewBox="0 0 2048 2048" width="1024" height="1024" preserveAspectRatio="none">
<path transform="translate(0,0)" fill="rgb(255,255,255)" d="M 0 0 L 2048 0 L 2048 2048 L 0 2048 L 0 0 z"/>
<path transform="translate(0,0)" fill="rgb(20,74,125)" d="M 433.776 243.425 C 525.612 237.789 723.367 252.901 794.912 316.014 C 806.028 325.82 815.472 339.069 815.994 354.401 C 816.43 367.192 810.192 378.506 801.739 387.653 C 748.309 445.466 594.002 463.361 519.249 466.178 C 423.607 471.463 235.466 458.827 158.629 395.771 C 147.128 386.333 136.416 373.078 135.26 357.715 C 134.29 344.822 140.652 332.786 149.053 323.434 C 202.207 264.256 358.784 247.811 433.776 243.425 z"/>
<path transform="translate(0,0)" fill="rgb(80,100,111)" d="M 135.527 602.356 C 142.43 608.908 148.059 615.941 155.65 621.963 C 247.655 694.949 476.826 699.878 588.469 687.042 C 657.707 679.081 770.39 659.215 815.759 602.096 C 816.447 630.85 816.055 659.698 816.103 688.462 C 816.13 704.826 817.569 722.829 815.559 739.043 C 815.161 742.247 814.003 745.226 812.791 748.196 C 809.444 754.312 805.379 759.673 800.448 764.584 C 739.162 825.63 560.478 840.781 478.459 840.861 C 394.911 840.943 211.954 826.364 149.811 763.396 C 144.002 757.51 138.691 750.434 136.677 742.306 C 132.771 726.543 135.058 706.984 135.094 690.641 L 135.527 602.356 z"/>
<path transform="translate(0,0)" fill="rgb(43,135,196)" d="M 135.264 414.562 C 141.789 419.7 146.214 427.425 152.979 432.728 C 250.061 508.831 470.571 515.394 587.872 501.106 C 658.14 492.546 769.888 473.271 816.008 414.436 C 816.354 436.35 818.37 545.141 813.845 558.317 C 810.452 565.52 805.716 571.787 800.084 577.382 C 737.779 639.283 558.818 653.006 475.583 653.057 C 392.234 653.108 211.964 638.42 150.315 575.926 C 144.477 570.007 139.305 563.5 137.055 555.369 C 132.544 539.061 135.09 515.999 135.12 498.792 L 135.264 414.562 z"/>
<path transform="translate(0,0)" fill="rgb(20,74,125)" d="M 346.799 1059.37 C 365.876 1061.99 385.048 1063.87 404.27 1065.01 L 404.455 1334.42 C 462.878 1334.12 521.302 1334.17 579.725 1334.59 C 563.544 1317.85 548.915 1299.04 533.823 1281.29 C 508.932 1252.05 483.889 1222.94 458.695 1193.97 L 458.76 1067.53 C 478.117 1067.78 497.477 1067.6 516.826 1067 C 516.716 1110.02 517.402 1153.12 516.375 1196.12 L 645.103 1334.8 C 676.3 1333.18 708.108 1334.33 739.368 1334.46 L 892.787 1334.64 C 912.632 1354.43 933.764 1373.11 954.364 1392.11 L 729.464 1392.25 C 719.219 1392.3 708.96 1392.57 698.715 1392.74 C 721.136 1417.16 744.492 1441.2 765.672 1466.7 C 805.92 1466 846.27 1466.72 886.529 1466.75 L 1118.64 1466.92 C 1138.41 1487.01 1160.21 1505.6 1181.17 1524.47 C 1133.44 1525.97 1085.3 1524.6 1037.51 1524.64 L 738.569 1524.68 L 626.557 1392.7 L 346.88 1392.42 L 346.799 1059.37 z"/>
<path transform="translate(0,0)" fill="rgb(251,188,32)" d="M 1492.74 1412.19 C 1572.22 1445.7 1650.82 1481.63 1729.78 1516.35 C 1790.47 1543.03 1852.23 1568.32 1912.05 1596.87 C 1858.96 1618.17 1806.25 1640.8 1753.43 1662.78 C 1765.67 1679.82 1779.51 1695.94 1792.61 1712.33 C 1820.29 1746.95 1848.36 1781.56 1874.91 1817.05 C 1867.31 1823.2 1859.38 1829.03 1851.62 1834.99 C 1833.8 1849.4 1815.77 1863.56 1797.54 1877.46 L 1723.14 1781.7 C 1708.25 1762.45 1693.82 1742.3 1677.77 1724.03 C 1643.41 1769.71 1611.17 1817.69 1574.65 1861.67 C 1570.42 1844.42 1568.35 1826.26 1564.95 1808.78 C 1554.69 1755.76 1544.95 1702.65 1535.72 1649.45 L 1511.96 1520.27 C 1505.15 1484.34 1497.83 1448.41 1492.74 1412.19 z"/>
<path transform="translate(0,0)" fill="rgb(193,200,201)" d="M 135.587 790.783 C 141.004 797.084 146.5 802.835 152.95 808.093 C 244.003 882.309 468.474 887.551 579.592 876.052 C 650.589 868.706 768.613 848.297 816.014 790.056 L 816.124 873.185 C 816.137 888.267 817.204 904.233 815.327 919.167 C 833.333 929.413 852.806 939.133 870.013 950.635 C 862.129 955.318 852.575 954.057 844.941 958.261 L 843.14 957.49 C 840.576 961.352 841.614 968.497 841.751 973.155 C 830.126 964.249 819.469 954.186 807.844 945.297 C 806.442 946.156 804.976 947.667 803.268 947.35 C 796.004 946.003 767.2 923.581 755.213 918.848 C 750.445 916.965 745.328 917.098 740.29 917.584 C 724.498 919.107 657.592 934.808 645.284 942.414 C 638.385 946.676 634.214 954.961 632.624 962.676 C 631.139 969.881 631.55 977.644 631.539 984.968 C 632.015 992.475 631.804 999.952 631.646 1007.47 C 631.477 1010.87 631.592 1014.57 630.854 1017.89 C 617.014 1018.46 602.786 1021.58 588.949 1023.05 C 560.796 1026.06 532.517 1027.72 504.206 1028.05 C 414.085 1029.28 218.791 1019.26 151.092 952.46 C 145.32 946.765 138.985 938.879 136.984 930.944 C 133.295 916.309 135.271 897.514 135.3 882.385 C 135.569 851.852 135.665 821.317 135.587 790.783 z"/>
<path transform="translate(0,0)" fill="rgb(44,165,85)" d="M 718.62 865.216 C 751.668 881.35 783.355 900.992 815.327 919.167 C 833.333 929.413 852.806 939.133 870.013 950.635 C 862.129 955.318 852.575 954.057 844.941 958.261 L 843.14 957.49 C 840.576 961.352 841.614 968.497 841.751 973.155 C 830.126 964.249 819.469 954.186 807.844 945.297 C 777.274 919.721 748.036 892.113 718.62 865.216 z"/>
<path transform="translate(0,0)" fill="rgb(230,45,42)" d="M 532.416 922.571 C 546.206 930.065 559.443 938.982 572.712 947.38 C 592.41 959.77 612.019 972.3 631.539 984.968 C 632.015 992.475 631.804 999.952 631.646 1007.47 C 631.477 1010.87 631.592 1014.57 630.854 1017.89 C 626.623 1015.28 623.167 1011.54 619.592 1008.11 C 589.888 980.262 560.822 951.742 532.416 922.571 z"/>
<path transform="translate(0,0)" fill="rgb(248,166,29)" d="M 1372.26 1258.57 C 1391.43 1269.86 1410.21 1283.37 1430.18 1293.05 C 1432.64 1298.24 1430.71 1418.12 1430.95 1431.76 C 1406.64 1438.75 1382.26 1445.47 1357.8 1451.91 C 1350.23 1453.89 1340.68 1457.57 1333 1457.83 C 1314.92 1444.36 1295.43 1432.94 1276.78 1420.29 C 1277.1 1374.52 1276.26 1328.72 1276.36 1282.94 C 1295.93 1278.59 1315.26 1273.15 1334.68 1268.18 C 1347.18 1264.98 1359.96 1262.43 1372.26 1258.57 z"/>
<path transform="translate(0,0)" fill="rgb(242,139,29)" d="M 1276.36 1282.94 C 1295.02 1295.09 1314.16 1307.02 1333.27 1318.45 L 1333.49 1413.93 C 1333.55 1427.62 1335.37 1444.53 1333 1457.83 C 1314.92 1444.36 1295.43 1432.94 1276.78 1420.29 C 1277.1 1374.52 1276.26 1328.72 1276.36 1282.94 z"/>
<path transform="translate(0,0)" fill="rgb(251,188,32)" d="M 1372.26 1258.57 C 1391.43 1269.86 1410.21 1283.37 1430.18 1293.05 C 1407.92 1298.56 1385.81 1304.93 1363.65 1310.84 C 1353.83 1313.47 1343.33 1317.15 1333.27 1318.45 C 1314.16 1307.02 1295.02 1295.09 1276.36 1282.94 C 1295.93 1278.59 1315.26 1273.15 1334.68 1268.18 C 1347.18 1264.98 1359.96 1262.43 1372.26 1258.57 z"/>
<path transform="translate(0,0)" fill="rgb(230,45,42)" d="M 1024.47 1214.75 C 1053.65 1208.89 1083.06 1201.87 1111.72 1193.86 C 1128.82 1204.43 1146.63 1214.36 1163.3 1225.52 L 1163.05 1334.77 L 1102.74 1350.62 C 1093.77 1352.97 1083.35 1354.74 1074.84 1358.29 C 1057.81 1346.34 1040.11 1335.22 1022.81 1323.66 C 1023 1311.03 1021.9 1220.09 1023.26 1216.39 C 1023.5 1215.76 1024.07 1215.3 1024.47 1214.75 z"/>
<path transform="translate(0,0)" fill="rgb(198,32,36)" d="M 1022.81 1323.66 C 1023 1311.03 1021.9 1220.09 1023.26 1216.39 C 1023.5 1215.76 1024.07 1215.3 1024.47 1214.75 C 1040.26 1227.03 1058.45 1236.08 1074.77 1247.64 C 1073.51 1273.28 1074.2 1299.47 1074.53 1325.15 C 1074.66 1336.05 1075.58 1347.45 1074.84 1358.29 C 1057.81 1346.34 1040.11 1335.22 1022.81 1323.66 z"/>
<path transform="translate(0,0)" fill="rgb(235,82,79)" d="M 1024.47 1214.75 C 1053.65 1208.89 1083.06 1201.87 1111.72 1193.86 C 1128.82 1204.43 1146.63 1214.36 1163.3 1225.52 C 1136.16 1232.63 1101.77 1242.91 1074.77 1247.64 C 1058.45 1236.08 1040.26 1227.03 1024.47 1214.75 z"/>
<path transform="translate(0,0)" fill="rgb(33,121,190)" d="M 1113.55 1049.08 C 1142.37 1043.53 1171.42 1035.56 1199.77 1027.91 C 1216.47 1038.44 1233.66 1048.31 1250.08 1059.25 C 1252.7 1063.46 1250.88 1153.08 1250.94 1165.99 C 1237.61 1169.64 1171.26 1188.76 1163.05 1187.69 L 1113.02 1154.2 C 1113.78 1119.21 1111.7 1084.05 1113.55 1049.08 z"/>
<path transform="translate(0,0)" fill="rgb(20,74,125)" d="M 1113.55 1049.08 C 1130.03 1060.11 1148.95 1069.92 1164.27 1082.38 C 1163.87 1097.07 1165.98 1180.92 1163.05 1187.69 L 1113.02 1154.2 C 1113.78 1119.21 1111.7 1084.05 1113.55 1049.08 z"/>
<path transform="translate(0,0)" fill="rgb(43,135,196)" d="M 1113.55 1049.08 C 1142.37 1043.53 1171.42 1035.56 1199.77 1027.91 C 1216.47 1038.44 1233.66 1048.31 1250.08 1059.25 C 1221.95 1068.44 1192.24 1072.67 1164.27 1082.38 C 1148.95 1069.92 1130.03 1060.11 1113.55 1049.08 z"/>
<path transform="translate(0,0)" fill="rgb(230,45,42)" d="M 796.483 1146.1 C 807.089 1145.21 817.985 1141.84 828.375 1139.44 C 845.983 1135.37 863.705 1131.5 881.116 1126.65 C 897.597 1136.57 913.924 1146.75 930.092 1157.18 C 932.532 1161.33 930.89 1247.54 930.868 1260.31 C 911.486 1265.64 892.027 1270.69 872.498 1275.45 C 864.097 1277.58 853.918 1279.14 846.005 1282.55 C 828.55 1273.25 811.659 1260.51 795.01 1249.68 C 795.336 1226.86 795.502 1204.03 795.507 1181.21 C 795.605 1169.62 795.077 1157.58 796.483 1146.1 z"/>
<path transform="translate(0,0)" fill="rgb(198,32,36)" d="M 796.483 1146.1 C 812.361 1156.83 830.7 1166.1 845.259 1178.38 C 846.808 1193.23 845.533 1208.98 845.382 1223.92 C 845.184 1243.49 845.622 1262.99 846.005 1282.55 C 828.55 1273.25 811.659 1260.51 795.01 1249.68 C 795.336 1226.86 795.502 1204.03 795.507 1181.21 C 795.605 1169.62 795.077 1157.58 796.483 1146.1 z"/>
<path transform="translate(0,0)" fill="rgb(235,82,79)" d="M 796.483 1146.1 C 807.089 1145.21 817.985 1141.84 828.375 1139.44 C 845.983 1135.37 863.705 1131.5 881.116 1126.65 C 897.597 1136.57 913.924 1146.75 930.092 1157.18 C 902.351 1165.66 873.408 1171.22 845.259 1178.38 C 830.7 1166.1 812.361 1156.83 796.483 1146.1 z"/>
<path transform="translate(0,0)" fill="rgb(44,165,85)" d="M 870.013 950.635 C 876.68 951.86 917.385 940.258 926.664 937.46 C 943.332 947.478 959.73 958.548 976.776 967.858 C 978.685 1001.46 977.062 1035.88 977.176 1069.58 C 966.992 1072.28 894.862 1092.59 889.877 1090.02 C 889.829 1089.99 889.808 1089.93 889.774 1089.89 L 841.238 1057.42 C 842.6 1029.44 840.722 1001.22 841.751 973.155 C 841.614 968.497 840.576 961.352 843.14 957.49 L 844.941 958.261 C 852.575 954.057 862.129 955.318 870.013 950.635 z"/>
<path transform="translate(0,0)" fill="rgb(32,137,75)" d="M 841.751 973.155 C 841.614 968.497 840.576 961.352 843.14 957.49 L 844.941 958.261 C 860.172 968.389 875.562 979.907 891.77 988.31 C 892.004 1002.03 893.289 1082.86 889.774 1089.89 L 841.238 1057.42 C 842.6 1029.44 840.722 1001.22 841.751 973.155 z"/>
<path transform="translate(0,0)" fill="rgb(77,178,104)" d="M 870.013 950.635 C 876.68 951.86 917.385 940.258 926.664 937.46 C 943.332 947.478 959.73 958.548 976.776 967.858 C 968.464 968.615 960.257 971.406 952.204 973.568 C 932.829 978.769 911.611 985.878 891.77 988.31 C 875.562 979.907 860.172 968.389 844.941 958.261 C 852.575 954.057 862.129 955.318 870.013 950.635 z"/>
<path transform="translate(0,0)" fill="rgb(248,166,29)" d="M 661.632 965.764 C 689.791 959.47 718.147 953.53 746.058 946.199 C 762.074 956.863 779.884 965.809 795.197 977.341 C 794.804 1010.64 794.703 1043.94 794.895 1077.24 L 738.405 1091.82 C 729.305 1094.12 719.907 1097.05 710.681 1098.61 C 693.618 1088.33 676.986 1077.01 660.226 1066.22 C 660.2 1055.43 659.934 968.366 661.632 965.764 z"/>
<path transform="translate(0,0)" fill="rgb(242,139,29)" d="M 660.226 1066.22 C 660.2 1055.43 659.934 968.366 661.632 965.764 C 676.971 977.392 695.769 985.154 710.203 997.819 C 709.937 1031.19 708.624 1065.32 710.681 1098.61 C 693.618 1088.33 676.986 1077.01 660.226 1066.22 z"/>
<path transform="translate(0,0)" fill="rgb(251,188,32)" d="M 661.632 965.764 C 689.791 959.47 718.147 953.53 746.058 946.199 C 762.074 956.863 779.884 965.809 795.197 977.341 C 767.695 985.612 738.273 991.645 710.203 997.819 C 695.769 985.154 676.971 977.392 661.632 965.764 z"/>
<path transform="translate(0,0)" fill="rgb(20,74,125)" d="M 1083.55 1386.82 C 1091.95 1387.86 1311.02 1528.95 1341.01 1546.53 C 1357.82 1556.37 1388.56 1562.6 1407.98 1568.1 C 1435.5 1576.19 1463.08 1584.05 1490.73 1591.68 C 1492.5 1602.26 1494.22 1612.82 1496.54 1623.3 C 1436.11 1614.02 1374.89 1608.97 1314.28 1600.9 C 1293.67 1582.97 1274.14 1562.99 1254.13 1544.31 C 1197.63 1491.57 1141.47 1437.97 1083.55 1386.82 z"/>
<path transform="translate(0,0)" fill="rgb(20,74,125)" d="M 629.183 1057.42 L 630.673 1058.03 C 631.204 1063.42 631.677 1069.42 633.172 1074.63 C 636.152 1085.02 645.024 1091.32 653.991 1096.25 C 654.249 1120.44 654.265 1144.62 654.04 1168.81 C 685.135 1168.92 716.473 1169.7 747.53 1168.23 C 752.854 1175.58 758.916 1181.1 765.987 1186.72 C 765.333 1200 765.327 1213.3 765.192 1226.59 L 735.5 1226.77 L 595.881 1226.86 L 596.136 1061.8 C 607.186 1060.76 618.194 1058.98 629.183 1057.42 z"/>
<path transform="translate(0,0)" fill="rgb(20,74,125)" d="M 1277.6 1181.32 C 1298.84 1179.58 1323.94 1182.25 1345.54 1182.92 C 1389.37 1184.29 1433.21 1185.42 1477.05 1186.3 L 1541.35 1318.39 C 1557.33 1350.95 1573.91 1383.37 1588.66 1416.52 C 1575.33 1410.57 1561.87 1404.91 1548.3 1399.54 C 1512.18 1343.27 1473.93 1288.13 1436.21 1232.92 C 1399.26 1222.15 1362.81 1209.44 1326.27 1197.36 C 1310.34 1192.09 1292.78 1188.3 1277.6 1181.32 z"/>
<path transform="translate(0,0)" fill="rgb(43,135,196)" d="M 1255.71 1196.11 C 1256.59 1196.01 1257.49 1195.66 1258.37 1195.8 C 1261.82 1196.37 1310.67 1233.86 1318.17 1239.22 C 1297.06 1246.49 1263.96 1247.54 1250.37 1266.47 L 1246.73 1274.55 C 1229.56 1253.33 1210.91 1232.36 1192.75 1211.94 C 1213.76 1207.36 1234.96 1201.77 1255.71 1196.11 z"/>
<path transform="translate(0,0)" fill="rgb(80,100,111)" d="M 953.793 1105.12 C 958.427 1105.34 1036.29 1170.12 1047.11 1179.03 L 1020.21 1184.81 C 1016.17 1186.08 1012.57 1187.8 1008.8 1189.68 C 992.336 1172.54 975.391 1155.83 958.68 1138.93 C 949.66 1129.81 940.01 1120.85 931.872 1110.95 C 939.375 1109.44 946.512 1107.49 953.793 1105.12 z"/>
<path transform="translate(0,0)" fill="rgb(20,74,125)" d="M 1005.77 1060.26 C 1031.61 1072.75 1057.06 1086.19 1082.56 1099.38 C 1082.04 1106.94 1084.25 1130 1081.1 1135.31 L 1078.6 1134.43 C 1052.08 1118.7 1025.15 1102.99 997.914 1088.54 C 1004.56 1078.89 1005.24 1071.66 1005.77 1060.26 z"/>
<path transform="translate(0,0)" fill="rgb(242,139,29)" d="M 1193.57 1333.56 C 1210.96 1343.42 1228.37 1352.88 1245.49 1363.23 C 1245.38 1377.45 1245.06 1391.71 1245.83 1405.91 L 1231.53 1398.17 C 1210.85 1386.87 1188.48 1377.2 1168.87 1364.18 C 1172.69 1362.68 1176.3 1361.11 1179.71 1358.79 C 1188.88 1352.53 1191.45 1343.85 1193.57 1333.56 z"/>
<path transform="translate(0,0)" fill="rgb(242,139,29)" d="M 1448.17 1457.42 C 1455.4 1461.02 1463.39 1467.99 1469.87 1472.93 C 1472.38 1488.35 1474.97 1503.76 1477.64 1519.16 C 1465.42 1512.53 1452.95 1506.32 1440.59 1499.97 C 1424.39 1491.13 1407.65 1483.31 1391.44 1474.43 C 1409.59 1469.12 1431.77 1466.89 1448.17 1457.42 z"/>
<path transform="translate(0,0)" fill="rgb(198,32,36)" d="M 959.359 1243.66 L 992.659 1263.37 C 992.2 1273.65 993.203 1284.15 991.978 1294.36 L 990.552 1294.79 C 979.135 1287.57 966.836 1281.1 954.745 1275.08 C 959.576 1264.56 959.345 1254.91 959.359 1243.66 z"/>
<path transform="translate(0,0)" fill="rgb(198,32,36)" d="M 792.822 1107.13 C 796.509 1107.79 800.504 1112.69 803.23 1115.25 C 801.606 1116.09 799.989 1116.95 798.441 1117.92 C 787.94 1124.54 780.82 1135.35 778.12 1147.35 L 769.982 1139.33 C 762.491 1132.63 755.125 1125.79 747.889 1118.81 C 762.908 1115.47 778.205 1111.93 792.822 1107.13 z"/>
</svg>